{"title":"King Of Texas 2002 DVD-R (RLG)","uid":9333760,"size":3771484160,"categoryP":"video","categoryS":"movies_dvdr","magnet":"?xt=urn:btih:dcd0c9490b953bb2621a4f0831ca914025bea8ff&amp;dn=King+Of+Texas+2002+DVD-R+%28RLG%29&amp;tr=udp%3A%2F%2Ftracker.openbittorrent.com%3A80&amp;tr=udp%3A%2F%2Fopen.demonii.com%3A1337&amp;tr=udp%3A%2F%2Ftracker.coppersurfer.tk%3A6969&amp;tr=udp%3A%2F%2Fexodus.desync.com%3A6969","seeders":0,"leechers":0,"uploader":"RedLegsGreaves","files":-1,"time":1386816291,"description":" &lt;a href=&quot;http://www.imdb.com/title/tt0282659/&quot; rel=&quot;nofollow&quot; target=&quot;_NEW&quot;&gt;http://www.imdb.com/title/tt0282659/&lt;/a&gt;\nIn this adaptation of Shakespeare's King Lear, self-made ranch tycoon John Lear divides his holdings among his daughters but finds that once they have his property, they reject him.\n\nRelease date: 23 March 2002\nLanguage: English\nSubtitles: Norwegian, Swedish, Danish\n\nFor Newer Users.\nSimply Drag downloaded folder to your Media Player. This is a PAL DVD.\nThis is ripped so you would have best quality, menu, bonus/special feature, language options etc.\nNote:DVDs may not have have all* featues.\n\n\nVideo\nID : 224 (0xE0)\nFormat : MPEG Video\nFormat version : Version 2\nFormat profile : Main@Main\nFormat settings, BVOP : Yes\nFormat settings, Matrix : Default\nFormat settings, GOP : M=3, N=12\nDuration : 26mn 32s\nBit rate mode : Variable\nBit rate : 4 903 Kbps\nMaximum bit rate : 7 500 Kbps\nWidth : 720 pixels\nHeight : 576 pixels\nDisplay aspect ratio : 16:9\nFrame rate : 25.000 fps\nStandard : PAL\nColor space : YUV\nChroma subsampling : 4:2:0\nBit depth : 8 bits\nScan type : Interlaced\nScan order : Top Field First\nCompression mode : Lossy\nBits/(Pixel*Frame) : 0.473\nTime code of first frame : 00:25:22:14\nTime code source : Group of pictures header\nStream size : 931 MiB (91%)\n\nAudio\nID : 189 (0xBD)-128 (0x80)\nFormat : AC-3\nFormat/Info : Audio Coding 3\nMode extension : CM (complete main)\nFormat settings, Endianness : Big\nMuxing mode : DVD-Video\nDuration : 26mn 32s\nBit rate mode : Constant\nBit rate : 384 Kbps\nChannel count : 2 channels\nChannel positions : Front: L R\nSampling rate : 48.0 KHz\nBit depth : 16 bits\nCompression mode : Lossy\nDelay relative to video : -464ms\nStream size : 72.9 MiB (7%)","torrent":{"xt":"urn:btih:dcd0c9490b953bb2621a4f0831ca914025bea8ff","amp;dn":"King+Of+Texas+2002+DVD-R+%28RLG%29","amp;tr":["udp%3A%2F%2Ftracker.openbittorrent.com%3A80","udp%3A%2F%2Fopen.demonii.com%3A1337","udp%3A%2F%2Ftracker.coppersurfer.tk%3A6969","udp%3A%2F%2Fexodus.desync.com%3A6969"],"infoHash":"dcd0c9490b953bb2621a4f0831ca914025bea8ff","infoHashBuffer":{"type":"Buffer","data":[220,208,201,73,11,149,59,178,98,26,79,8,49,202,145,64,37,190,168,255]},"announce":[],"urlList":[]}}